<svg width="100" height="100" viewBox="0 0 100 100" fill="none" xmlns="http://www.w3.org/2000/svg">
<circle cx="50" cy="50" r="50" fill="#FF0000"/>
<path d="M60.8293 56.5366C62.1301 57.8374 62.1301 59.7886 60.8293 61.0894C60.1789 61.7398 59.3984 62 58.6179 62C57.8374 62 56.9268 61.7398 56.4065 61.0894L49.9024 54.5854L43.3984 61.0894C42.748 61.7398 41.9675 62 41.187 62C40.4065 62 39.4959 61.7398 38.9756 61.0894C37.6748 59.7886 37.6748 57.8374 38.9756 56.5366L45.4797 50.0325L38.9756 43.5285C37.6748 42.2276 37.6748 40.2764 38.9756 38.9756C40.2764 37.6748 42.2276 37.6748 43.5285 38.9756L50.0325 45.4797L56.5366 38.9756C57.8374 37.6748 59.7886 37.6748 61.0894 38.9756C62.3902 40.2764 62.3902 42.2276 61.0894 43.5285L54.5854 50.0325L60.8293 56.5366Z" fill="white"/>
</svg>
