<svg width="100" height="100" viewBox="0 0 100 100" fill="none" xmlns="http://www.w3.org/2000/svg">
<circle cx="50" cy="50" r="50" fill="#FF0000"/>
<path d="M56.9592 52.8846C56.9592 55.7477 59.2765 58.0769 62.125 58.0769H66.1429V62.6923C66.1429 63.9669 65.1151 65 63.8469 65H52.3673V56.6796C53.3802 56.2342 54.0893 55.2208 54.0893 54.0385C54.0893 52.4454 52.8043 51.1538 51.2194 51.1538C49.6344 51.1538 48.3495 52.4454 48.3495 54.0385C48.3495 55.2208 49.0585 56.2338 50.0714 56.6796V65H46.6276V59.2308C46.6276 58.8331 46.4236 58.4635 46.0876 58.2527L43.7159 56.7627C43.9819 54.9304 42.5638 53.4615 40.8878 53.4615C39.3028 53.4615 38.0179 54.7531 38.0179 56.3462C38.0179 58.6835 40.6287 60.0212 42.5083 58.725L44.3316 59.8708V65H36.2959C35.0278 65 34 63.9669 34 62.6923V39.0385C34 36.8081 35.7989 35 38.0179 35H60.1161C60.9085 35 61.551 35.6458 61.551 36.4423C61.551 37.2388 60.9085 37.8846 60.1161 37.8846H38.3048C37.5158 37.8846 36.8699 38.5338 36.8699 39.3269C36.8699 40.12 37.5158 40.7692 38.3048 40.7692H63.8469C65.1151 40.7692 66.1429 41.8023 66.1429 43.0769V47.6923H62.125C59.2765 47.6923 56.9592 50.0215 56.9592 52.8846Z" fill="white"/>
</svg>
