<svg width="192" height="17" viewBox="0 0 192 17" fill="none" xmlns="http://www.w3.org/2000/svg">
<path d="M17.784 0.199999H23.064V17H17.784V10.832H6.024V17H0.744V0.199999H6.024V6.368H17.784V0.199999ZM30.1479 0.199999L31.5879 3.488H40.2519L41.6919 0.199999H47.5239L39.6999 17H32.1399L24.3399 0.199999H30.1479ZM38.5719 7.28H33.2679L35.9079 13.304L38.5719 7.28ZM61.9909 0.199999C63.8949 0.199999 65.4389 0.783999 66.6229 1.952C67.8229 3.104 68.4229 4.616 68.4229 6.488C68.4229 8.36 67.8229 9.88 66.6229 11.048C65.4389 12.216 63.8949 12.8 61.9909 12.8H54.0709V17H48.7909V0.199999H61.9909ZM60.7909 8.336C61.1269 8.336 61.3909 8.328 61.5829 8.312C61.7909 8.28 62.0309 8.216 62.3029 8.12C62.5909 8.008 62.7989 7.816 62.9269 7.544C63.0709 7.272 63.1429 6.92 63.1429 6.488C63.1429 6.056 63.0709 5.712 62.9269 5.456C62.7989 5.184 62.5909 5 62.3029 4.904C62.0309 4.792 61.7909 4.728 61.5829 4.712C61.3909 4.68 61.1269 4.664 60.7909 4.664H54.0709V8.336H60.7909ZM87.3165 4.304H74.8365V6.8H87.3165V10.4H74.8365V12.896H87.3165V17H69.5565V0.199999H87.3165V4.304ZM112.077 0.199999C113.981 0.199999 115.525 0.783999 116.709 1.952C117.909 3.104 118.509 4.616 118.509 6.488C118.509 8.36 117.909 9.88 116.709 11.048C115.525 12.216 113.981 12.8 112.077 12.8H104.157V17H98.8768V0.199999H112.077ZM110.877 8.336C111.213 8.336 111.477 8.328 111.669 8.312C111.877 8.28 112.117 8.216 112.389 8.12C112.677 8.008 112.885 7.816 113.013 7.544C113.157 7.272 113.229 6.92 113.229 6.488C113.229 6.056 113.157 5.712 113.013 5.456C112.885 5.184 112.677 5 112.389 4.904C112.117 4.792 111.877 4.728 111.669 4.712C111.477 4.68 111.213 4.664 110.877 4.664H104.157V8.336H110.877ZM139.274 6.488C139.274 7.768 138.978 8.904 138.386 9.896C137.81 10.872 137.01 11.608 135.986 12.104L139.01 17H132.77L130.274 12.8H124.922V17H119.642V0.199999H132.842C134.746 0.199999 136.29 0.783999 137.474 1.952C138.674 3.104 139.274 4.616 139.274 6.488ZM124.922 4.664V8.336H131.642C131.978 8.336 132.242 8.328 132.434 8.312C132.642 8.28 132.882 8.216 133.154 8.12C133.442 8.008 133.65 7.816 133.778 7.544C133.922 7.272 133.994 6.92 133.994 6.488C133.994 6.056 133.922 5.712 133.778 5.456C133.65 5.184 133.442 5 133.154 4.904C132.882 4.792 132.642 4.728 132.434 4.712C132.242 4.68 131.978 4.664 131.642 4.664H124.922ZM145.618 0.199999V17H140.338V0.199999H145.618ZM172.792 0.199999V17H167.512V7.208L161.728 17H158.128L152.344 7.184V17H147.064V0.199999H153.832L159.952 10.928L166.048 0.199999H172.792ZM191.988 4.304H179.508V6.8H191.988V10.4H179.508V12.896H191.988V17H174.228V0.199999H191.988V4.304Z" fill="white"/>
</svg>
